<mxfile host="app.diagrams.net" agent="Mozilla/5.0 (Windows NT 10.0; Win64; x64) AppleWebKit/537.36 (KHTML, like Gecko) Chrome/139.0.0.0 Safari/537.36" version="28.1.2">
  <diagram name="Página-1" id="hHUTpTCNcOjfzkNrcu8O">
    <mxGraphModel dx="1351" dy="901" grid="1" gridSize="10" guides="1" tooltips="1" connect="1" arrows="1" fold="1" page="1" pageScale="1" pageWidth="827" pageHeight="1169" math="0" shadow="0">
      <root>
        <mxCell id="0" />
        <mxCell id="1" parent="0" />
        <mxCell id="CeTHd3bhz1H60QF5U9jG-27" value="" style="verticalLabelPosition=bottom;align=center;labelBackgroundColor=#ffffff;verticalAlign=top;strokeWidth=2;strokeColor=#0080F0;shadow=0;dashed=0;shape=mxgraph.ios7.icons.cloud;direction=east;fontFamily=Verdana;fontSize=15;html=1;" parent="1" vertex="1">
          <mxGeometry x="9" y="10" width="810" height="440" as="geometry" />
        </mxCell>
        <mxCell id="CeTHd3bhz1H60QF5U9jG-5" value="" style="edgeStyle=orthogonalEdgeStyle;rounded=0;orthogonalLoop=1;jettySize=auto;html=1;dashed=1;dashPattern=8 8;flowAnimation=1;" parent="1" source="CeTHd3bhz1H60QF5U9jG-1" target="CeTHd3bhz1H60QF5U9jG-13" edge="1">
          <mxGeometry relative="1" as="geometry">
            <mxPoint x="240" y="496.5" as="targetPoint" />
          </mxGeometry>
        </mxCell>
        <mxCell id="CeTHd3bhz1H60QF5U9jG-1" value="" style="points=[];aspect=fixed;html=1;align=center;shadow=0;dashed=0;fillColor=#FF6A00;strokeColor=none;shape=mxgraph.alibaba_cloud.user;" parent="1" vertex="1">
          <mxGeometry x="247" y="690" width="60" height="60" as="geometry" />
        </mxCell>
        <mxCell id="CeTHd3bhz1H60QF5U9jG-10" value="" style="edgeStyle=orthogonalEdgeStyle;rounded=0;orthogonalLoop=1;jettySize=auto;html=1;dashed=1;dashPattern=8 8;flowAnimation=1;" parent="1" source="CeTHd3bhz1H60QF5U9jG-4" target="CeTHd3bhz1H60QF5U9jG-7" edge="1">
          <mxGeometry relative="1" as="geometry" />
        </mxCell>
        <mxCell id="CeTHd3bhz1H60QF5U9jG-4" value="" style="sketch=0;points=[[0,0,0],[0.25,0,0],[0.5,0,0],[0.75,0,0],[1,0,0],[0,1,0],[0.25,1,0],[0.5,1,0],[0.75,1,0],[1,1,0],[0,0.25,0],[0,0.5,0],[0,0.75,0],[1,0.25,0],[1,0.5,0],[1,0.75,0]];outlineConnect=0;fontColor=#232F3E;fillColor=#7AA116;strokeColor=#ffffff;dashed=0;verticalLabelPosition=bottom;verticalAlign=top;align=center;html=1;fontSize=12;fontStyle=0;aspect=fixed;shape=mxgraph.aws4.resourceIcon;resIcon=mxgraph.aws4.s3;" parent="1" vertex="1">
          <mxGeometry x="238" y="300" width="78" height="78" as="geometry" />
        </mxCell>
        <mxCell id="CeTHd3bhz1H60QF5U9jG-18" style="edgeStyle=orthogonalEdgeStyle;rounded=0;orthogonalLoop=1;jettySize=auto;html=1;dashed=1;dashPattern=8 8;flowAnimation=1;" parent="1" source="CeTHd3bhz1H60QF5U9jG-7" target="CeTHd3bhz1H60QF5U9jG-8" edge="1">
          <mxGeometry relative="1" as="geometry" />
        </mxCell>
        <mxCell id="CeTHd3bhz1H60QF5U9jG-7" value="" style="sketch=0;outlineConnect=0;fontColor=#232F3E;gradientColor=none;fillColor=#7AA116;strokeColor=none;dashed=0;verticalLabelPosition=bottom;verticalAlign=top;align=center;html=1;fontSize=12;fontStyle=0;aspect=fixed;pointerEvents=1;shape=mxgraph.aws4.lambda_function;" parent="1" vertex="1">
          <mxGeometry x="238" y="170" width="78" height="78" as="geometry" />
        </mxCell>
        <mxCell id="CeTHd3bhz1H60QF5U9jG-12" value="" style="edgeStyle=orthogonalEdgeStyle;rounded=0;orthogonalLoop=1;jettySize=auto;html=1;dashed=1;dashPattern=8 8;flowAnimation=1;" parent="1" source="CeTHd3bhz1H60QF5U9jG-8" target="CeTHd3bhz1H60QF5U9jG-11" edge="1">
          <mxGeometry relative="1" as="geometry">
            <Array as="points">
              <mxPoint x="530" y="330" />
              <mxPoint x="530" y="330" />
            </Array>
          </mxGeometry>
        </mxCell>
        <mxCell id="CeTHd3bhz1H60QF5U9jG-8" value="" style="sketch=0;points=[[0,0,0],[0.25,0,0],[0.5,0,0],[0.75,0,0],[1,0,0],[0,1,0],[0.25,1,0],[0.5,1,0],[0.75,1,0],[1,1,0],[0,0.25,0],[0,0.5,0],[0,0.75,0],[1,0.25,0],[1,0.5,0],[1,0.75,0]];outlineConnect=0;fontColor=#232F3E;fillColor=#ED7100;strokeColor=#ffffff;dashed=0;verticalLabelPosition=bottom;verticalAlign=top;align=center;html=1;fontSize=12;fontStyle=0;aspect=fixed;shape=mxgraph.aws4.resourceIcon;resIcon=mxgraph.aws4.ec2;" parent="1" vertex="1">
          <mxGeometry x="400" y="300" width="78" height="78" as="geometry" />
        </mxCell>
        <mxCell id="CeTHd3bhz1H60QF5U9jG-11" value="" style="outlineConnect=0;dashed=0;verticalLabelPosition=bottom;verticalAlign=top;align=center;html=1;shape=mxgraph.aws3.volume;fillColor=#E05243;gradientColor=none;" parent="1" vertex="1">
          <mxGeometry x="570" y="303" width="52.5" height="75" as="geometry" />
        </mxCell>
        <mxCell id="CeTHd3bhz1H60QF5U9jG-13" value="" style="image;aspect=fixed;html=1;points=[];align=center;fontSize=12;image=img/lib/azure2/general/File.svg;" parent="1" vertex="1">
          <mxGeometry x="249" y="565.5" width="56.00000000000001" height="69" as="geometry" />
        </mxCell>
        <mxCell id="CeTHd3bhz1H60QF5U9jG-16" style="edgeStyle=orthogonalEdgeStyle;rounded=0;orthogonalLoop=1;jettySize=auto;html=1;entryX=0.5;entryY=1;entryDx=0;entryDy=0;entryPerimeter=0;dashed=1;dashPattern=8 8;flowAnimation=1;" parent="1" source="CeTHd3bhz1H60QF5U9jG-13" target="CeTHd3bhz1H60QF5U9jG-4" edge="1">
          <mxGeometry relative="1" as="geometry" />
        </mxCell>
        <mxCell id="CeTHd3bhz1H60QF5U9jG-22" style="edgeStyle=orthogonalEdgeStyle;rounded=0;orthogonalLoop=1;jettySize=auto;html=1;entryX=0.992;entryY=0.533;entryDx=0;entryDy=0;entryPerimeter=0;dashed=1;dashPattern=8 8;flowAnimation=1;" parent="1" source="CeTHd3bhz1H60QF5U9jG-8" target="CeTHd3bhz1H60QF5U9jG-1" edge="1">
          <mxGeometry relative="1" as="geometry">
            <Array as="points">
              <mxPoint x="440" y="722" />
            </Array>
          </mxGeometry>
        </mxCell>
        <mxCell id="CeTHd3bhz1H60QF5U9jG-31" value="1" style="ellipse;whiteSpace=wrap;html=1;aspect=fixed;strokeWidth=2;fontFamily=Tahoma;spacingBottom=4;spacingRight=2;strokeColor=#d3d3d3;fontSize=15;" parent="1" vertex="1">
          <mxGeometry x="238" y="740" width="20" height="20" as="geometry" />
        </mxCell>
        <mxCell id="CeTHd3bhz1H60QF5U9jG-32" value="2" style="ellipse;whiteSpace=wrap;html=1;aspect=fixed;strokeWidth=2;fontFamily=Tahoma;spacingBottom=4;spacingRight=2;strokeColor=#d3d3d3;fontSize=15;" parent="1" vertex="1">
          <mxGeometry x="218" y="590" width="20" height="20" as="geometry" />
        </mxCell>
        <mxCell id="CeTHd3bhz1H60QF5U9jG-33" value="3" style="ellipse;whiteSpace=wrap;html=1;aspect=fixed;strokeWidth=2;fontFamily=Tahoma;spacingBottom=4;spacingRight=2;strokeColor=#d3d3d3;fontSize=15;" parent="1" vertex="1">
          <mxGeometry x="217" y="359" width="20" height="20" as="geometry" />
        </mxCell>
        <mxCell id="CeTHd3bhz1H60QF5U9jG-34" value="4" style="ellipse;whiteSpace=wrap;html=1;aspect=fixed;strokeWidth=2;fontFamily=Tahoma;spacingBottom=4;spacingRight=2;strokeColor=#d3d3d3;fontSize=15;" parent="1" vertex="1">
          <mxGeometry x="218" y="230" width="20" height="20" as="geometry" />
        </mxCell>
        <mxCell id="CeTHd3bhz1H60QF5U9jG-35" value="5" style="ellipse;whiteSpace=wrap;html=1;aspect=fixed;strokeWidth=2;fontFamily=Tahoma;spacingBottom=4;spacingRight=2;strokeColor=#d3d3d3;" parent="1" vertex="1">
          <mxGeometry x="380" y="358" width="20" height="20" as="geometry" />
        </mxCell>
        <mxCell id="CeTHd3bhz1H60QF5U9jG-36" value="5" style="ellipse;whiteSpace=wrap;html=1;aspect=fixed;strokeWidth=2;fontFamily=Tahoma;spacingBottom=4;spacingRight=2;strokeColor=#d3d3d3;fontSize=15;" parent="1" vertex="1">
          <mxGeometry x="380" y="360" width="20" height="20" as="geometry" />
        </mxCell>
        <mxCell id="CeTHd3bhz1H60QF5U9jG-37" value="6" style="ellipse;whiteSpace=wrap;html=1;aspect=fixed;strokeWidth=2;fontFamily=Tahoma;spacingBottom=4;spacingRight=2;strokeColor=#d3d3d3;fontSize=15;" parent="1" vertex="1">
          <mxGeometry x="550" y="360" width="20" height="20" as="geometry" />
        </mxCell>
        <mxCell id="CeTHd3bhz1H60QF5U9jG-38" value="7" style="ellipse;whiteSpace=wrap;html=1;aspect=fixed;strokeWidth=2;fontFamily=Tahoma;spacingBottom=4;spacingRight=2;strokeColor=#d3d3d3;fontSize=15;" parent="1" vertex="1">
          <mxGeometry x="296" y="740" width="20" height="20" as="geometry" />
        </mxCell>
        <mxCell id="CeTHd3bhz1H60QF5U9jG-41" value="&lt;font style=&quot;font-size: 20px;&quot;&gt;Usuário&lt;/font&gt;" style="text;html=1;align=center;verticalAlign=middle;resizable=0;points=[];autosize=1;strokeColor=none;fillColor=none;" parent="1" vertex="1">
          <mxGeometry x="232" y="760" width="90" height="40" as="geometry" />
        </mxCell>
        <mxCell id="CeTHd3bhz1H60QF5U9jG-43" value="&lt;font style=&quot;font-size: 29px;&quot;&gt;AWS Cloud&lt;/font&gt;" style="text;html=1;align=center;verticalAlign=middle;resizable=0;points=[];autosize=1;strokeColor=none;fillColor=none;fontStyle=1" parent="1" vertex="1">
          <mxGeometry x="410" y="60" width="170" height="50" as="geometry" />
        </mxCell>
      </root>
    </mxGraphModel>
  </diagram>
</mxfile>
